<?xml version="1.0" encoding="utf-8"?>
<!-- Generator: Adobe Illustrator 24.0.0, SVG Export Plug-In . SVG Version: 6.00 Build 0)  -->
<svg version="1.1" xmlns="http://www.w3.org/2000/svg" xmlns:xlink="http://www.w3.org/1999/xlink" x="0px" y="0px"
	 viewBox="0 0 256 256" style="enable-background:new 0 0 256 256;" xml:space="preserve">
<style type="text/css">
	.st0{fill:#F98FA6;}
	.st1{fill:#FC657E;}
	.st2{fill:#DAE6F1;}
	.st3{fill:#5290DB;}
	.st4{fill:#FCDD86;}
	.st5{fill:#F5C84C;}
	.st6{fill:#87D147;}
	.st7{fill:#70D6F9;}
	.st8{fill:#EDF4FC;}
	.st9{fill:#9BE5F9;}
	.st10{fill:#B2E26D;}
	.st11{fill:#F9C1A8;}
	.st12{fill:#414344;}
	.st13{fill:#E1FBFF;}
	.st14{fill:#FFE3EC;}
	.st15{fill:#FCBECF;}
	.st16{fill:#EF4460;}
	.st17{fill:#80C2F9;}
	.st18{fill:#3A70BF;}
	.st19{fill:#FCA265;}
	.st20{fill:#5B5D60;}
	.st21{fill:#818182;}
	.st22{fill:#C7D7E5;}
	.st23{fill:#F9D0B4;}
	.st24{fill:#AA6F59;}
	.st25{fill:#D1856D;}
	.st26{fill:#FCC29A;}
	.st27{fill:#29589F;}
	.st28{fill:#F7B386;}
	.st29{fill:#FC8C48;}
	.st30{fill:#FFF0CC;}
	.st31{fill:#57AF12;}
	.st32{fill:#3CAADC;}
	.st33{fill:#EDB311;}
	.st34{fill:#231F20;}
</style>
<g id="Layer_1">
</g>
<g id="Layer_2">
</g>
<g id="Layer_3">
</g>
<g id="Layer_4">
</g>
<g id="Layer_5">
</g>
<g id="Layer_6">
</g>
<g id="Layer_7">
</g>
<g id="Layer_8">
</g>
<g id="Layer_9">
</g>
<g id="Layer_10">
</g>
<g id="Layer_11">
</g>
<g id="Layer_12">
</g>
<g id="Layer_13">
</g>
<g id="Layer_14">
</g>
<g id="Layer_15">
</g>
<g id="Layer_16">
</g>
<g id="Layer_17">
</g>
<g id="Layer_18">
</g>
<g id="Layer_19">
</g>
<g id="Layer_20">
</g>
<g id="Layer_21">
</g>
<g id="Layer_22">
</g>
<g id="Layer_23">
</g>
<g id="Layer_24">
</g>
<g id="Layer_25">
</g>
<g id="Layer_26">
</g>
<g id="Layer_27">
</g>
<g id="Layer_28">
</g>
<g id="Layer_29">
</g>
<g id="Layer_30">
</g>
<g id="Layer_31">
</g>
<g id="Layer_32">
</g>
<g id="Layer_33">
</g>
<g id="Layer_34">
</g>
<g id="Layer_35">
	<g>
		<g>
			<g>
				<path class="st23" d="M133.962,67.372c-0.022-1.121-0.92-2.044-2.04-2.077c-16.414-0.481-25.063-6.987-28.386-10.244
					c-0.907-0.889-2.372-0.796-3.162,0.199C85.942,73.398,64.653,70.837,57.495,69.339c-1.301-0.272-2.549,0.708-2.55,2.037v31.811
					c0,21.731,17.78,39.511,39.511,39.511s39.511-17.78,39.511-39.511V67.99C133.968,67.783,133.966,67.577,133.962,67.372z"/>
			</g>
		</g>
		<g>
			<g>
				<path class="st20" d="M125.375,25.461c-4.21,0-8.147,1.19-11.53,3.218c-3.951-6.594-11.15-11.047-19.355-11.047h-11.59
					c-22.431,0-40.784,18.353-40.784,40.784v18.274c2.823-2.259,6.397-3.617,10.293-3.617c0.863,0,1.708,0.073,2.536,0.201v-1.899
					c0.001-1.329,1.249-2.31,2.55-2.037c7.158,1.498,28.447,4.059,42.879-14.089c0.791-0.994,2.255-1.088,3.162-0.199
					c3.323,3.258,11.972,9.763,28.386,10.244c1.12,0.033,2.018,0.956,2.04,2.077c0.004,0.206,0.006,0.411,0.006,0.618v5.285
					c0.827-0.128,1.672-0.201,2.536-0.201c4.447,0,8.475,1.768,11.442,4.629V48.031C147.945,35.617,137.788,25.461,125.375,25.461z"
					/>
			</g>
		</g>
		<g>
			<g>
				<path class="st23" d="M136.503,73.074c-0.863,0-1.708,0.073-2.536,0.201v29.912c0,0.891-0.041,1.773-0.099,2.65
					c0.86,0.139,1.736,0.23,2.635,0.23c9.111,0,16.496-7.386,16.496-16.496S145.614,73.074,136.503,73.074z"/>
			</g>
		</g>
		<g>
			<g>
				<path class="st23" d="M54.945,103.187V73.275c-0.827-0.128-1.672-0.201-2.536-0.201c-9.111,0-16.496,7.386-16.496,16.496
					s7.386,16.496,16.496,16.496c0.899,0,1.775-0.092,2.635-0.23v-0.001C54.985,104.959,54.945,104.077,54.945,103.187z"/>
			</g>
		</g>
		<g>
			<g>
				<path class="st8" d="M89.007,169.944l-15.322-16.586c-1.204,1.452-2.716,2.665-4.47,3.53l-10.845,5.347l-0.802,0.202
					l18.218,19.721c1.435,1.553,3.858,1.649,5.411,0.214l7.596-7.018C90.346,173.92,90.442,171.497,89.007,169.944z"/>
			</g>
		</g>
		<g>
			<g>
				<path class="st8" d="M120.847,156.887c-1.755-0.865-3.266-2.078-4.47-3.53l-15.322,16.586c-1.435,1.553-1.339,3.976,0.214,5.411
					l7.596,7.018c1.553,1.435,3.976,1.339,5.411-0.214l6.177-6.687v-6.644c0-4.229,2.973-7.79,6.931-8.717L120.847,156.887z"/>
			</g>
		</g>
		<g>
			<g>
				<path class="st7" d="M120.453,244.542v-69.071l-6.177,6.687c-1.435,1.553-3.857,1.649-5.411,0.214l-7.596-7.018
					c-0.828-0.765-1.228-1.81-1.217-2.855H90.01c0.011,1.045-0.389,2.09-1.217,2.855l-7.596,7.018
					c-1.553,1.435-3.976,1.339-5.411-0.214l-18.218-19.721l-29.883,7.521c-6.617,1.666-11.383,7.441-11.762,14.254l-4.368,64.713
					c-0.138,2.485,1.839,4.576,4.328,4.576h113.531C124.485,253.5,120.453,249.469,120.453,244.542z"/>
			</g>
		</g>
		<g>
			<g>
				<path class="st23" d="M113.234,144.645v-6.726c-5.594,3.045-11.993,4.779-18.777,4.779c-6.326,0-12.313-1.516-17.628-4.188
					v6.135c0,3.241-1.148,6.306-3.143,8.712l15.322,16.586c0.67,0.725,0.993,1.641,1.003,2.556h10.042
					c0.01-0.915,0.333-1.831,1.003-2.556l15.322-16.586C114.382,150.951,113.234,147.886,113.234,144.645z"/>
			</g>
		</g>
		<g>
			<g>
				<path class="st4" d="M80.156,197.5h-22.25c-1.312,0-2.375,1.063-2.375,2.375v6.25c0,1.312,1.063,2.375,2.375,2.375h22.25
					c1.312,0,2.375-1.063,2.375-2.375v-6.25C82.531,198.563,81.468,197.5,80.156,197.5z"/>
			</g>
		</g>
		<g>
			<g>
				<path class="st3" d="M195.497,135.314h-26.088c-2.762,0-5,2.239-5,5s2.238,5,5,5h26.088c2.762,0,5-2.239,5-5
					S198.259,135.314,195.497,135.314z"/>
			</g>
		</g>
		<g>
			<g>
				<path class="st27" d="M235.495,159.869H129.412c-4.927,0-8.958,4.031-8.958,8.958v75.714c0,4.927,4.031,8.958,8.958,8.958
					h106.083c4.927,0,8.958-4.031,8.958-8.958v-75.714C244.453,163.9,240.422,159.869,235.495,159.869z"/>
			</g>
		</g>
		<g>
			<g>
				<path class="st3" d="M235.495,159.869H129.412c-4.927,0-8.958,4.031-8.958,8.958v28.714c0,4.927,4.031,8.958,8.958,8.958h28.801
					v-7.035c0-0.598,0.485-1.083,1.083-1.083h3.446c0.485,0,0.898-0.327,1.035-0.792c0.389-1.317,0.913-2.574,1.557-3.759
					c0.232-0.426,0.17-0.949-0.173-1.292l-2.436-2.437c-0.423-0.423-0.423-1.108,0-1.531l5.176-5.176
					c0.423-0.423,1.108-0.423,1.531,0l2.437,2.437c0.343,0.343,0.865,0.405,1.292,0.173c1.185-0.644,2.442-1.168,3.759-1.557
					c0.465-0.137,0.791-0.551,0.791-1.035v-3.446c0-0.598,0.485-1.083,1.083-1.083h7.32c0.598,0,1.083,0.485,1.083,1.083v3.446
					c0,0.485,0.327,0.898,0.792,1.035c1.317,0.39,2.574,0.913,3.759,1.557c0.426,0.232,0.949,0.17,1.292-0.173l2.437-2.437
					c0.423-0.423,1.108-0.423,1.531,0l5.176,5.176c0.423,0.423,0.423,1.108,0,1.531l-2.437,2.437
					c-0.343,0.343-0.405,0.865-0.173,1.292c0.644,1.185,1.168,2.442,1.557,3.759c0.137,0.465,0.551,0.792,1.035,0.792h3.446
					c0.598,0,1.083,0.485,1.083,1.083v7.035h28.801c4.927,0,8.958-4.031,8.958-8.958v-28.714
					C244.453,163.9,240.422,159.869,235.495,159.869z"/>
			</g>
		</g>
		<g>
			<g>
				<rect x="136.198" y="206.5" class="st18" width="10" height="47"/>
			</g>
		</g>
		<g>
			<g>
				<rect x="218.709" y="206.5" class="st18" width="10" height="47"/>
			</g>
		</g>
		<g>
			<g>
				<path class="st4" d="M205.611,198.382h-3.446c-0.485,0-0.898-0.327-1.035-0.792c-0.39-1.317-0.913-2.574-1.557-3.759
					c-0.232-0.426-0.17-0.949,0.173-1.292l2.437-2.437c0.423-0.423,0.423-1.108,0-1.531l-5.176-5.176
					c-0.423-0.423-1.108-0.423-1.531,0l-2.437,2.437c-0.343,0.343-0.865,0.405-1.292,0.173c-1.185-0.644-2.442-1.168-3.759-1.557
					c-0.465-0.137-0.792-0.551-0.792-1.035v-3.446c0-0.598-0.485-1.083-1.083-1.083h-7.32c-0.598,0-1.083,0.485-1.083,1.083v3.446
					c0,0.485-0.327,0.898-0.791,1.035c-1.317,0.39-2.575,0.913-3.759,1.557c-0.426,0.232-0.949,0.17-1.292-0.173l-2.437-2.437
					c-0.423-0.423-1.108-0.423-1.531,0l-5.176,5.176c-0.423,0.423-0.423,1.108,0,1.531l2.436,2.437
					c0.343,0.343,0.405,0.865,0.173,1.292c-0.644,1.185-1.168,2.442-1.557,3.759c-0.137,0.465-0.551,0.792-1.035,0.792h-3.446
					c-0.598,0-1.083,0.485-1.083,1.083v7.32c0,0.598,0.485,1.083,1.083,1.083h3.446c0.485,0,0.898,0.327,1.035,0.791
					c0.389,1.317,0.913,2.575,1.557,3.759c0.232,0.426,0.17,0.949-0.173,1.292l-2.436,2.437c-0.423,0.423-0.423,1.108,0,1.531
					l5.176,5.176c0.423,0.423,1.108,0.423,1.531,0l2.437-2.437c0.343-0.343,0.865-0.405,1.292-0.173
					c1.185,0.644,2.442,1.168,3.759,1.557c0.465,0.137,0.791,0.551,0.791,1.035v3.446c0,0.598,0.485,1.083,1.083,1.083h7.32
					c0.598,0,1.083-0.485,1.083-1.083v-3.446c0-0.485,0.327-0.898,0.792-1.035c1.317-0.389,2.574-0.913,3.759-1.557
					c0.426-0.232,0.949-0.17,1.292,0.173l2.437,2.437c0.423,0.423,1.108,0.423,1.531,0l5.176-5.176c0.423-0.423,0.423-1.108,0-1.531
					l-2.437-2.437c-0.343-0.343-0.405-0.866-0.173-1.292c0.644-1.185,1.168-2.442,1.557-3.759c0.137-0.465,0.551-0.791,1.035-0.791
					h3.446c0.598,0,1.083-0.485,1.083-1.083v-7.32C206.694,198.867,206.209,198.382,205.611,198.382z"/>
			</g>
		</g>
		<g>
			<g>
				<path class="st5" d="M182.453,194.43c-4.802,0-8.695,3.893-8.695,8.695s3.893,8.695,8.695,8.695
					c4.802,0,8.695-3.893,8.695-8.695S187.255,194.43,182.453,194.43z"/>
			</g>
		</g>
		<g>
			<g>
				<path d="M110.531,87.06c-2.745,0-4.97,2.225-4.97,4.97s2.225,4.97,4.97,4.97c2.745,0,4.97-2.225,4.97-4.97
					S113.276,87.06,110.531,87.06z"/>
			</g>
		</g>
		<g>
			<g>
				<path d="M79.531,87.06c-2.745,0-4.97,2.225-4.97,4.97S76.786,97,79.531,97c2.745,0,4.97-2.225,4.97-4.97
					S82.276,87.06,79.531,87.06z"/>
			</g>
		</g>
		<g>
			<g>
				<path d="M109.383,112.731c-0.62-1.234-2.122-1.732-3.355-1.114c-3.174,1.591-6.977,2.432-10.996,2.432
					c-4.021,0-7.823-0.841-10.997-2.432c-1.232-0.619-2.736-0.121-3.355,1.114c-0.618,1.234-0.119,2.737,1.115,3.355
					c3.865,1.938,8.443,2.962,13.237,2.962s9.371-1.024,13.236-2.962C109.502,115.468,110.001,113.966,109.383,112.731z"/>
			</g>
		</g>
		<g>
			<g>
				<g>
					<path d="M136.461,67.322c-0.049-2.466-2.011-4.454-4.466-4.526c-15.805-0.463-23.944-6.82-26.71-9.531
						c-0.937-0.917-2.229-1.398-3.526-1.316c-1.307,0.081-2.524,0.717-3.343,1.745c-13.325,16.757-32.7,14.811-40.408,13.199
						c-1.372-0.288-2.779,0.055-3.867,0.937c-1.076,0.873-1.694,2.165-1.696,3.574v31.784c0,23.166,18.847,42.012,42.012,42.012
						s42.012-18.846,42.012-42.012V67.99C136.468,67.767,136.466,67.545,136.461,67.322z M131.468,103.187
						c0,20.408-16.604,37.012-37.012,37.012s-37.012-16.604-37.012-37.012V71.88c7.225,1.429,29.493,3.945,44.634-14.761
						c4.076,3.878,13.098,10.093,29.389,10.663c0.001,0.069,0.001,0.139,0.001,0.208V103.187z"/>
				</g>
			</g>
		</g>
		<g>
			<g>
				<g>
					<g>
						<path d="M125.375,22.961c-3.695,0-7.354,0.839-10.71,2.443c-4.708-6.389-12.238-10.272-20.175-10.272H82.9
							c-23.866,0-43.283,19.417-43.283,43.284V76.69c0,0.961,0.551,1.837,1.417,2.253c0.865,0.417,1.896,0.299,2.645-0.301
							c2.51-2.008,5.528-3.069,8.73-3.069c0.694,0,1.419,0.058,2.152,0.171c0.725,0.111,1.456-0.098,2.01-0.572
							c0.554-0.475,0.873-1.168,0.873-1.898V71.88c7.225,1.429,29.493,3.944,44.634-14.761c4.076,3.877,13.099,10.093,29.389,10.663
							c0.001,0.069,0.001,0.139,0.001,0.208v5.285c0,0.73,0.319,1.423,0.873,1.898s1.288,0.684,2.009,0.573
							c0.735-0.114,1.46-0.171,2.153-0.171c3.633,0,7.08,1.395,9.707,3.929c0.476,0.458,1.101,0.7,1.736,0.7
							c0.329,0,0.661-0.065,0.977-0.199c0.923-0.392,1.522-1.298,1.522-2.301V48.031C150.445,34.207,139.199,22.961,125.375,22.961z
							 M145.445,72.812c-2.726-1.461-5.782-2.238-8.942-2.238h-0.035V67.99c0-0.223-0.002-0.444-0.007-0.668
							c-0.049-2.466-2.011-4.454-4.466-4.526c-15.805-0.463-23.944-6.819-26.71-9.53c-0.937-0.918-2.228-1.402-3.525-1.317
							c-1.307,0.081-2.525,0.717-3.344,1.745c-13.325,16.757-32.7,14.811-40.408,13.199c-1.372-0.288-2.779,0.055-3.867,0.937
							c-0.86,0.698-1.429,1.665-1.622,2.746c-0.037,0-0.073,0-0.109,0c-2.733,0-5.367,0.568-7.792,1.667V58.417
							c0-21.11,17.174-38.284,38.283-38.284h11.59c6.982,0,13.577,3.768,17.211,9.832c0.341,0.569,0.894,0.979,1.537,1.14
							c0.643,0.159,1.323,0.06,1.893-0.281c3.123-1.873,6.666-2.862,10.244-2.862c11.066,0,20.07,9.003,20.07,20.07V72.812z"/>
					</g>
				</g>
			</g>
		</g>
		<g>
			<g>
				<path d="M95.031,181.629c-1.381,0-2.5,1.119-2.5,2.5v59.68c0,1.381,1.119,2.5,2.5,2.5s2.5-1.119,2.5-2.5v-59.68
					C97.531,182.748,96.412,181.629,95.031,181.629z"/>
			</g>
		</g>
		<g>
			<g>
				<path d="M40.305,200.458c-1.381,0-2.5,1.119-2.5,2.5v49.523c0,1.381,1.119,2.5,2.5,2.5s2.5-1.119,2.5-2.5v-49.523
					C42.805,201.577,41.686,200.458,40.305,200.458z"/>
			</g>
		</g>
		<g>
			<g>
				<g>
					<path d="M136.503,70.574c-0.949,0-1.931,0.078-2.917,0.23c-1.219,0.188-2.118,1.237-2.118,2.471v29.912
						c0,0.734-0.03,1.523-0.094,2.483c-0.086,1.288,0.823,2.43,2.098,2.635c1.096,0.176,2.088,0.262,3.031,0.262
						c10.475,0,18.997-8.522,18.997-18.997S146.978,70.574,136.503,70.574z M136.503,103.566c-0.013,0-0.024,0-0.037,0
						c0.001-0.128,0.002-0.254,0.002-0.38V75.574c0.012,0,0.023,0,0.035,0c7.718,0,13.997,6.279,13.997,13.996
						C150.5,97.288,144.221,103.566,136.503,103.566z"/>
				</g>
			</g>
		</g>
		<g>
			<g>
				<g>
					<path d="M57.444,103.187V73.274c0-1.233-0.899-2.282-2.117-2.471c-0.986-0.152-1.968-0.23-2.918-0.23
						c-10.475,0-18.996,8.521-18.996,18.996s8.521,18.997,18.996,18.997c0.948,0,1.941-0.086,3.034-0.263
						c1.273-0.206,2.181-1.347,2.095-2.635C57.475,104.709,57.444,103.92,57.444,103.187z M52.409,103.566
						c-7.718,0-13.996-6.279-13.996-13.997c0-7.717,6.278-13.996,13.996-13.996c0.012,0,0.023,0,0.035,0v27.613
						c0,0.125,0.001,0.252,0.002,0.38C52.435,103.566,52.422,103.566,52.409,103.566z"/>
				</g>
			</g>
		</g>
		<g>
			<g>
				<g>
					<path d="M90.844,168.248l-15.322-16.586c-0.489-0.53-1.209-0.817-1.902-0.803c-0.721,0.019-1.398,0.349-1.858,0.903
						c-1.008,1.216-2.236,2.186-3.651,2.884l-10.607,5.229l-0.544,0.137c-0.856,0.215-1.535,0.865-1.787,1.711
						c-0.251,0.846-0.039,1.762,0.561,2.41l18.218,19.722c1.147,1.242,2.709,1.962,4.398,2.029c0.086,0.003,0.172,0.005,0.257,0.005
						c1.596,0,3.11-0.591,4.288-1.68l7.597-7.018C93.053,174.824,93.212,170.812,90.844,168.248z M87.097,173.519l-7.598,7.018
						c-0.26,0.24-0.611,0.362-0.953,0.352c-0.354-0.014-0.683-0.166-0.924-0.426l-15.824-17.13l8.522-4.202
						c1.194-0.589,2.297-1.312,3.298-2.161l13.553,14.67C87.668,172.178,87.635,173.021,87.097,173.519z"/>
				</g>
			</g>
		</g>
		<g>
			<g>
				<path d="M128.217,157.734l-6.264-3.088c-1.415-0.698-2.644-1.668-3.651-2.884c-0.46-0.555-1.138-0.884-1.858-0.903
					c-0.693-0.015-1.413,0.273-1.902,0.803l-15.322,16.586c-1.147,1.242-1.743,2.856-1.676,4.545
					c0.066,1.689,0.787,3.252,2.029,4.399l7.597,7.018c1.215,1.122,2.755,1.677,4.292,1.677c1.705,0,3.406-0.683,4.652-2.031
					l5.97-6.463c0.937-1.014,0.874-2.596-0.141-3.533c-1.015-0.938-2.597-0.874-3.533,0.14l-5.969,6.462
					c-0.497,0.538-1.341,0.573-1.879,0.075l-7.597-7.018c-0.261-0.241-0.412-0.569-0.426-0.923c-0.015-0.354,0.11-0.694,0.352-0.955
					l13.554-14.671c1,0.849,2.103,1.572,3.297,2.161l6.265,3.088c1.238,0.61,2.737,0.102,3.348-1.137
					S129.455,158.344,128.217,157.734z"/>
			</g>
		</g>
		<g>
			<g>
				<path d="M99.376,170h-9.048c-1.381,0-2.5,1.119-2.5,2.5s1.119,2.5,2.5,2.5h9.048c1.381,0,2.5-1.119,2.5-2.5
					S100.757,170,99.376,170z"/>
			</g>
		</g>
		<g>
			<g>
				<path d="M129.412,251H15.882c-0.51,0-0.983-0.204-1.333-0.574c-0.351-0.37-0.527-0.854-0.501-1.333l4.37-64.742
					c0.32-5.752,4.29-10.562,9.877-11.968l29.883-7.521c1.339-0.337,2.151-1.696,1.814-3.035c-0.338-1.339-1.695-2.153-3.035-1.814
					l-29.883,7.521c-7.721,1.943-13.205,8.589-13.646,16.509l-4.37,64.742c-0.104,1.867,0.573,3.718,1.858,5.077
					S14.011,256,15.882,256h113.53c1.381,0,2.5-1.119,2.5-2.5S130.793,251,129.412,251z"/>
			</g>
		</g>
		<g>
			<g>
				<path d="M118.302,151.762c-1.656-1.997-2.568-4.525-2.568-7.117v-6.083c0-1.381-1.119-2.5-2.5-2.5s-2.5,1.119-2.5,2.5v6.083
					c0,3.755,1.32,7.416,3.719,10.308c0.495,0.596,1.208,0.904,1.926,0.904c0.563,0,1.128-0.188,1.595-0.576
					C119.035,154.401,119.183,152.825,118.302,151.762z"/>
			</g>
		</g>
		<g>
			<g>
				<path d="M76.828,136.438c-1.381,0-2.5,1.119-2.5,2.5v5.707c0,2.592-0.912,5.119-2.567,7.117
					c-0.881,1.063-0.733,2.639,0.329,3.52c0.467,0.387,1.032,0.575,1.595,0.575c0.718,0,1.432-0.308,1.926-0.905
					c2.397-2.893,3.718-6.553,3.718-10.308v-5.707C79.328,137.557,78.209,136.438,76.828,136.438z"/>
			</g>
		</g>
		<g>
			<g>
				<g>
					<path d="M80.156,195H57.905c-2.688,0-4.874,2.187-4.874,4.875v6.25c0,2.688,2.187,4.875,4.874,4.875h22.251
						c2.688,0,4.875-2.187,4.875-4.875v-6.25C85.031,197.187,82.845,195,80.156,195z M80.031,206h-22v-6h22V206z"/>
				</g>
			</g>
		</g>
		<g>
			<g>
				<path d="M212.297,137.815h-10.8c-1.381,0-2.5,1.119-2.5,2.5s1.119,2.5,2.5,2.5h10.8c4.833,0,8.765,3.932,8.765,8.764v7.588
					c0,1.381,1.119,2.5,2.5,2.5s2.5-1.119,2.5-2.5v-7.588C226.062,143.99,219.887,137.815,212.297,137.815z"/>
			</g>
		</g>
		<g>
			<g>
				<path d="M163.453,137.815h-10.844c-7.589,0-13.764,6.175-13.764,13.764v7.483c0,1.381,1.119,2.5,2.5,2.5s2.5-1.119,2.5-2.5
					v-7.483c0-4.833,3.932-8.764,8.764-8.764h10.844c1.381,0,2.5-1.119,2.5-2.5S164.834,137.815,163.453,137.815z"/>
			</g>
		</g>
		<g>
			<g>
				<path class="st5" d="M155.983,8.882c-4.498-0.838-8.043-4.31-8.898-8.716c-0.043-0.221-0.352-0.221-0.395,0
					c-0.855,4.406-4.4,7.879-8.898,8.716c-0.226,0.042-0.226,0.345,0,0.387c4.498,0.838,8.042,4.31,8.898,8.717
					c0.043,0.221,0.352,0.221,0.395,0c0.855-4.406,4.4-7.879,8.898-8.717C156.208,9.227,156.208,8.925,155.983,8.882z"/>
			</g>
		</g>
		<g>
			<g>
				<path class="st1" d="M29.404,149.34c-3.717-0.692-6.646-3.562-7.353-7.203c-0.035-0.183-0.291-0.183-0.326,0
					c-0.707,3.641-3.636,6.511-7.353,7.203c-0.187,0.035-0.187,0.285,0,0.32c3.717,0.692,6.646,3.562,7.353,7.203
					c0.035,0.183,0.291,0.183,0.326,0c0.707-3.641,3.636-6.511,7.353-7.203C29.59,149.625,29.59,149.375,29.404,149.34z"/>
			</g>
		</g>
		<g>
			<g>
				<path class="st7" d="M184.694,105.302h-2.329v-2.33c0-1.744-1.413-3.157-3.157-3.157c-1.744,0-3.157,1.413-3.157,3.157v2.33
					h-2.33c-1.744,0-3.157,1.413-3.157,3.157s1.413,3.157,3.157,3.157h2.33v2.33c0,1.744,1.413,3.157,3.157,3.157
					c1.744,0,3.157-1.413,3.157-3.157v-2.33h2.329c1.744,0,3.157-1.413,3.157-3.157S186.438,105.302,184.694,105.302z"/>
			</g>
		</g>
		<g>
			<g>
				<path class="st6" d="M162.999,26.06c-1.865,0-3.377,1.512-3.377,3.377c0,1.865,1.512,3.377,3.377,3.377s3.377-1.512,3.377-3.377
					C166.376,27.572,164.864,26.06,162.999,26.06z"/>
			</g>
		</g>
		<g>
			<g>
				<path class="st5" d="M155.999,119.06c-1.865,0-3.377,1.512-3.377,3.377c0,1.865,1.512,3.377,3.377,3.377
					s3.377-1.512,3.377-3.377C159.376,120.572,157.864,119.06,155.999,119.06z"/>
			</g>
		</g>
		<g>
			<g>
				<g>
					<g>
						<g>
							<path d="M195.497,132.814h-26.088c-4.136,0-7.5,3.364-7.5,7.5s3.364,7.5,7.5,7.5h26.088c4.136,0,7.5-3.364,7.5-7.5
								S199.633,132.814,195.497,132.814z M195.497,142.814h-26.088c-1.379,0-2.5-1.122-2.5-2.5s1.121-2.5,2.5-2.5h26.088
								c1.379,0,2.5,1.122,2.5,2.5S196.876,142.814,195.497,142.814z"/>
						</g>
					</g>
				</g>
			</g>
		</g>
		<g>
			<g>
				<g>
					<path d="M235.495,157.369H129.412c-6.318,0-11.459,5.14-11.459,11.458v75.714c0,6.318,5.141,11.458,11.459,11.458h106.083
						c6.318,0,11.458-5.14,11.458-11.458v-75.714C246.953,162.509,241.813,157.369,235.495,157.369z M241.953,244.542
						c0,3.561-2.897,6.458-6.458,6.458H129.412c-3.562,0-6.459-2.897-6.459-6.458v-75.714c0-3.561,2.897-6.458,6.459-6.458h106.083
						c3.561,0,6.458,2.897,6.458,6.458V244.542z"/>
				</g>
			</g>
		</g>
		<g>
			<g>
				<path d="M244.453,195.042c-1.381,0-2.5,1.119-2.5,2.5c0,3.561-2.897,6.458-6.458,6.458H207.25c-1.381,0-2.5,1.119-2.5,2.5
					s1.119,2.5,2.5,2.5h28.245c6.318,0,11.458-5.14,11.458-11.458C246.953,196.161,245.834,195.042,244.453,195.042z"/>
			</g>
		</g>
		<g>
			<g>
				<path d="M157.781,204h-28.369c-3.562,0-6.459-2.897-6.459-6.458c0-1.381-1.119-2.5-2.5-2.5s-2.5,1.119-2.5,2.5
					c0,6.318,5.141,11.458,11.459,11.458h28.369c1.381,0,2.5-1.119,2.5-2.5S159.162,204,157.781,204z"/>
			</g>
		</g>
		<g>
			<g>
				<path d="M146.197,204.375c-1.381,0-2.5,1.119-2.5,2.5v45.875c0,1.381,1.119,2.5,2.5,2.5s2.5-1.119,2.5-2.5v-45.875
					C148.697,205.494,147.578,204.375,146.197,204.375z"/>
			</g>
		</g>
		<g>
			<g>
				<path d="M136.197,204.479c-1.381,0-2.5,1.119-2.5,2.5v45.772c0,1.381,1.119,2.5,2.5,2.5s2.5-1.119,2.5-2.5v-45.772
					C138.697,205.598,137.578,204.479,136.197,204.479z"/>
			</g>
		</g>
		<g>
			<g>
				<path d="M228.709,204.625c-1.381,0-2.5,1.119-2.5,2.5v45.813c0,1.381,1.119,2.5,2.5,2.5s2.5-1.119,2.5-2.5v-45.813
					C231.209,205.744,230.09,204.625,228.709,204.625z"/>
			</g>
		</g>
		<g>
			<g>
				<path d="M218.709,204.583c-1.381,0-2.5,1.119-2.5,2.5v45.855c0,1.381,1.119,2.5,2.5,2.5s2.5-1.119,2.5-2.5v-45.855
					C221.209,205.702,220.09,204.583,218.709,204.583z"/>
			</g>
		</g>
		<g>
			<g>
				<g>
					<path d="M205.611,195.882h-2.406c-0.274-0.788-0.595-1.56-0.957-2.31l1.701-1.701c0.677-0.676,1.05-1.576,1.05-2.533
						c0-0.958-0.373-1.857-1.05-2.533l-5.176-5.176c-1.354-1.354-3.713-1.354-5.066,0l-1.701,1.701
						c-0.751-0.362-1.523-0.682-2.31-0.957v-2.406c0-1.976-1.607-3.583-3.583-3.583h-7.32c-1.976,0-3.582,1.607-3.582,3.583v2.406
						c-0.787,0.274-1.559,0.594-2.311,0.957l-1.701-1.701c-0.677-0.677-1.576-1.049-2.533-1.049c-0.001,0-0.001,0-0.002,0
						c-0.957,0-1.856,0.374-2.53,1.049l-5.178,5.178c-1.394,1.396-1.395,3.667,0.001,5.065l1.701,1.702
						c-0.361,0.75-0.682,1.521-0.956,2.309h-2.406c-1.976,0-3.583,1.607-3.583,3.583v7.32c0,1.976,1.607,3.583,3.583,3.583h2.406
						c0.274,0.788,0.595,1.56,0.956,2.309l-1.703,1.704c-1.394,1.396-1.393,3.667,0.002,5.064l5.175,5.174
						c0.676,0.678,1.575,1.051,2.532,1.051c0.987,0.034,1.857-0.372,2.535-1.049l1.702-1.701c0.75,0.362,1.522,0.683,2.31,0.957
						v2.406c0,1.976,1.606,3.583,3.582,3.583h7.32c1.976,0,3.583-1.607,3.583-3.583v-2.406c0.786-0.274,1.559-0.594,2.31-0.956
						l1.701,1.701c1.354,1.354,3.713,1.354,5.066,0l5.175-5.175c0.678-0.676,1.051-1.576,1.051-2.534
						c0-0.957-0.373-1.857-1.05-2.533l-1.701-1.701c0.362-0.75,0.683-1.522,0.957-2.31h2.406c1.976,0,3.582-1.607,3.582-3.583v-7.32
						C209.193,197.489,207.587,195.882,205.611,195.882z M204.193,205.368h-2.028c-1.596,0-2.975,1.038-3.433,2.582
						c-0.336,1.136-0.792,2.237-1.356,3.275c-0.77,1.415-0.527,3.124,0.602,4.253l1.434,1.435l-3.171,3.171l-1.434-1.433
						c-1.128-1.132-2.839-1.372-4.254-0.603c-1.039,0.565-2.141,1.021-3.275,1.356c-1.544,0.457-2.581,1.836-2.581,3.432v2.029
						h-4.485v-2.029c0-1.595-1.038-2.975-2.583-3.433c-1.134-0.335-2.235-0.792-3.273-1.356c-1.416-0.77-3.126-0.527-4.254,0.602
						l-1.435,1.434l-3.171-3.171l1.432-1.431c1.132-1.129,1.375-2.839,0.604-4.257c-0.564-1.037-1.021-2.138-1.356-3.274
						c-0.458-1.544-1.837-2.582-3.433-2.582h-2.029v-4.485h2.029c1.596,0,2.975-1.038,3.433-2.582
						c0.336-1.136,0.792-2.237,1.356-3.275c0.771-1.417,0.527-3.127-0.603-4.253l-1.434-1.434l3.171-3.171l1.435,1.434
						c1.131,1.13,2.84,1.371,4.254,0.602c1.039-0.565,2.14-1.021,3.274-1.356c1.544-0.458,2.582-1.837,2.582-3.432v-2.029h4.485
						v2.029c0,1.596,1.037,2.975,2.583,3.433c1.133,0.335,2.234,0.791,3.271,1.355c1.416,0.771,3.125,0.53,4.255-0.601l1.435-1.434
						l3.171,3.171l-1.434,1.435c-1.129,1.129-1.371,2.838-0.602,4.254c0.564,1.037,1.021,2.138,1.356,3.274
						c0.458,1.544,1.837,2.582,3.433,2.582h2.028V205.368z"/>
				</g>
			</g>
		</g>
		<g>
			<g>
				<g>
					<path d="M182.453,191.93c-6.173,0-11.194,5.022-11.194,11.195s5.021,11.195,11.194,11.195s11.195-5.022,11.195-11.195
						S188.626,191.93,182.453,191.93z M182.453,209.32c-3.416,0-6.194-2.779-6.194-6.195s2.778-6.195,6.194-6.195
						s6.195,2.779,6.195,6.195S185.869,209.32,182.453,209.32z"/>
				</g>
			</g>
		</g>
	</g>
</g>
<g id="Layer_36">
</g>
<g id="Layer_37">
</g>
<g id="Layer_38">
</g>
<g id="Layer_39">
</g>
<g id="Layer_40">
</g>
<g id="Layer_41">
</g>
<g id="Layer_42">
</g>
<g id="Layer_43">
</g>
<g id="Layer_44">
</g>
<g id="Layer_45">
</g>
<g id="Layer_46">
</g>
<g id="Layer_47">
</g>
<g id="Layer_48">
</g>
<g id="Layer_49">
</g>
<g id="Layer_50">
</g>
<g id="Layer_51">
</g>
<g id="Layer_52">
</g>
<g id="Layer_53">
</g>
<g id="Layer_54">
</g>
<g id="Layer_55">
</g>
<g id="Layer_56">
</g>
<g id="Layer_57">
</g>
<g id="Layer_58">
</g>
<g id="Layer_59">
</g>
<g id="Layer_60">
</g>
<g id="Layer_61">
</g>
<g id="Layer_62">
</g>
<g id="Layer_63">
</g>
<g id="Layer_64">
</g>
<g id="Layer_65">
</g>
<g id="Layer_66">
</g>
<g id="Layer_67">
</g>
<g id="Layer_68">
</g>
<g id="Layer_69">
</g>
<g id="Layer_70">
</g>
<g id="Layer_71">
</g>
<g id="Layer_72">
</g>
<g id="Layer_73">
</g>
<g id="Layer_74">
</g>
<g id="Layer_75">
</g>
<g id="Layer_76">
</g>
<g id="Layer_77">
</g>
<g id="Layer_78">
</g>
<g id="Layer_79">
</g>
<g id="Layer_80">
</g>
<g id="Layer_81">
</g>
<g id="Layer_82">
</g>
<g id="Layer_83">
</g>
<g id="Layer_84">
</g>
<g id="Layer_85">
</g>
</svg>
